# xmcd CD database file
#
# Track frame offsets:
#	182
#	68405
#	75007
#	100120
#	103725
#	126100
#	129222
#	159120
#	162517
#	180862
#	192875
#	206530
#	211920
#	240762
#	265870
#
# Disc length: 3731 seconds
#
# Revision: 0
# Processed by: cddbd v1.5.2PL0 Copyright (c) Steve Scherf et al.
# Submitted via: CDex 1.51
#
DISCID=a90e910f
DTITLE=Martial Solal - Triptyque
DYEAR=1990
DGENRE=Jazz
TTITLE0=Pièce pour quatre
TTITLE1=Carte postale - Interlude I
TTITLE2=Carte postale - Batterie
TTITLE3=Carte postale - Interlude II
TTITLE4=Carte postale - Basse
TTITLE5=Carte postale - Interlude III
TTITLE6=Carte postale - Tango
TTITLE7=Carte postale - Interlude IV
TTITLE8=Carte postale - Alto
TTITLE9=Autour d'une rencontre - Introduction
TTITLE10=Autour d'une rencontre - Ensemble basse
TTITLE11=Autour d'une rencontre - Basse et quatuor
TTITLE12=Autour d'une rencontre - Thème avec piano
TTITLE13=Autour d'une rencontre - 3/4 et solo batterie
TTITLE14=Autour d'une rencontre - Final
EXTD=YEAR: 1990
EXTT0=
EXTT1=
EXTT2=
EXTT3=
EXTT4=
EXTT5=
EXTT6=
EXTT7=
EXTT8=
EXTT9=
EXTT10=
EXTT11=
EXTT12=
EXTT13=
EXTT14=
PLAYORDER=
